<?xml version="1.0" encoding="UTF-8"?>
<svg id="Layer_2" data-name="Layer 2" xmlns="http://www.w3.org/2000/svg" xmlns:xlink="http://www.w3.org/1999/xlink" viewBox="0 0 1323.72 258.72">
  <defs>
    <clipPath id="clippath">
      <rect y="0" width="1323.72" height="258.72" style="fill: none;"/>
    </clipPath>
  </defs>
  <g id="Layer_1-2" data-name="Layer 1">
    <g style="clip-path: url(#clippath);">
      <path d="M114.82,161.3h76.2c12.93,0,23.41-10.48,23.41-23.38s-10.48-23.38-23.41-23.38h-76.2c-12.93,0-23.42,10.48-23.42,23.38s10.48,23.38,23.42,23.38" style="fill: #fff;"/>
      <path d="M23.1,248.47c-12.76,0-23.1-10.34-23.1-23.11v-112.47C0,56.29,46.04,10.25,102.64,10.25h88.68c12.76,0,23.11,10.34,23.11,23.11s-10.35,23.11-23.11,23.11h-88.68c-31.11,0-56.43,25.31-56.43,56.43v112.47c0,12.76-10.34,23.11-23.11,23.11" style="fill: #fff;"/>
      <path d="M595.61,56.73h60.43c12.89,0,23.32-10.44,23.32-23.29s-10.43-23.3-23.32-23.3h-60.43c-65.82,0-119.35,53.48-119.35,119.23s53.54,119.22,119.35,119.22h60.43c12.89,0,23.32-10.43,23.32-23.29s-10.43-23.29-23.32-23.29h-60.43c-40.09,0-72.71-32.59-72.71-72.64s32.62-72.64,72.71-72.64" style="fill: #fff;"/>
      <path d="M363.17,24.57c-3.72-8.34-12.01-13.7-21.15-13.7s-17.4,5.36-21.11,13.7l-85.28,190.68c-5.22,11.67,0,25.37,11.68,30.58,11.67,5.22,25.37,0,30.58-11.68l64.14-143.43,64.15,143.43c3.85,8.6,12.3,13.7,21.15,13.7,3.15,0,6.37-.65,9.44-2.02,11.67-5.23,16.89-18.91,11.68-30.58L363.17,24.57Z" style="fill: #fff;"/>
      <path d="M754.23,152.74h99.52c12.93,0,23.41-10.48,23.41-23.38s-10.48-23.38-23.41-23.38h-99.52c-12.93,0-23.41,10.48-23.41,23.38s10.49,23.38,23.41,23.38" style="fill: #fff;"/>
      <path d="M917.38,202.46h-163.15c-12.92,0-23.41,10.48-23.41,23.38s10.49,23.38,23.41,23.38h163.15c12.93,0,23.41-10.48,23.41-23.38s-10.49-23.38-23.41-23.38" style="fill: #fff;"/>
      <path d="M917.38,9.49h-163.15c-12.92,0-23.41,10.47-23.41,23.38s10.49,23.38,23.41,23.38h163.15c12.93,0,23.41-10.48,23.41-23.38s-10.49-23.38-23.41-23.38" style="fill: #fff;"/>
      <path d="M1263.91,69.77c-33.01,0-59.86,26.86-59.86,59.87s26.85,59.8,59.86,59.8,59.8-26.82,59.8-59.8-26.82-59.87-59.8-59.87" style="fill: #fff;"/>
      <path d="M1144.19,19.7c22.11,0,40.11,17.99,40.11,40.1s-17.99,40.11-40.11,40.11-40.1-17.99-40.1-40.11,17.99-40.1,40.1-40.1M1144.19,119.67c33.01,0,59.86-26.85,59.86-59.86S1177.19,0,1144.19,0s-59.81,26.83-59.81,59.81,26.83,59.86,59.81,59.86" style="fill: #fff;"/>
      <path d="M1144.19,139.04c-32.98,0-59.81,26.83-59.81,59.81s26.83,59.86,59.81,59.86,59.86-26.86,59.86-59.86-26.86-59.81-59.86-59.81" style="fill: #fff;"/>
    </g>
  </g>
</svg>