<?xml version="1.0" encoding="UTF-8"?>
<svg id="Layer_2" data-name="Layer 2" xmlns="http://www.w3.org/2000/svg" xmlns:xlink="http://www.w3.org/1999/xlink" viewBox="0 0 1680.05 258.72">
  <defs>
    <clipPath id="clippath">
      <rect x="0" width="1680.05" height="258.72" style="fill: none;"/>
    </clipPath>
  </defs>
  <g id="Layer_1-2" data-name="Layer 1">
    <g style="clip-path: url(#clippath);">
      <path d="M288.42,10.02c-12.88,0-23.32,10.44-23.32,23.32v192.04c0,12.88,10.44,23.32,23.32,23.32s23.32-10.44,23.32-23.32V33.34c0-12.88-10.43-23.32-23.32-23.32" style="fill: #fff;"/>
      <path d="M476.32,10.02c-56,0-101.55,45.55-101.55,101.54v113.81c0,12.88,10.44,23.32,23.32,23.32s23.32-10.44,23.32-23.32v-113.81c0-30.27,24.63-54.91,54.91-54.91s54.9,24.64,54.9,54.91v113.81c0,12.88,10.44,23.32,23.33,23.32s23.32-10.44,23.32-23.32v-113.81c0-56-45.55-101.54-101.55-101.54" style="fill: #fff;"/>
      <path d="M1269.08,10.02h-46.01c-56,0-101.55,45.55-101.55,101.54v113.81c0,12.88,10.44,23.32,23.32,23.32s23.32-10.44,23.32-23.32v-113.81c0-30.27,24.62-54.91,54.91-54.91h46.01c12.88,0,23.32-10.45,23.32-23.32s-10.43-23.32-23.32-23.32" style="fill: #fff;"/>
      <path d="M821.79,217.76v-75.42c0-12.76-10.35-23.11-23.11-23.11s-23.11,10.35-23.11,23.11v75.42c0,12.76,10.35,23.11,23.11,23.11s23.11-10.35,23.11-23.11" style="fill: #fff;"/>
      <path d="M738.21,56.73h60.43c12.88,0,23.32-10.44,23.32-23.29s-10.43-23.3-23.32-23.3h-60.43c-65.81,0-119.35,53.48-119.35,119.23s53.54,119.22,119.35,119.22h60.43c12.88,0,23.32-10.43,23.32-23.29s-10.43-23.29-23.32-23.29h-60.43c-40.09,0-72.71-32.59-72.71-72.64s32.62-72.64,72.71-72.64" style="fill: #fff;"/>
      <path d="M898.84,152.74h99.52c12.93,0,23.41-10.48,23.41-23.38s-10.49-23.38-23.41-23.38h-99.52c-12.93,0-23.41,10.48-23.41,23.38s10.48,23.38,23.41,23.38" style="fill: #fff;"/>
      <path d="M1061.99,202.46h-163.15c-12.92,0-23.42,10.48-23.42,23.38s10.49,23.38,23.42,23.38h163.15c12.93,0,23.42-10.47,23.42-23.38s-10.48-23.38-23.42-23.38" style="fill: #fff;"/>
      <path d="M1061.99,9.49h-163.15c-12.92,0-23.42,10.47-23.42,23.38s10.49,23.38,23.42,23.38h163.15c12.93,0,23.42-10.48,23.42-23.38s-10.48-23.38-23.42-23.38" style="fill: #fff;"/>
      <path d="M113.35,161.3h76.2c12.93,0,23.42-10.48,23.42-23.38s-10.48-23.38-23.42-23.38h-76.2c-12.93,0-23.42,10.48-23.42,23.38s10.48,23.38,23.42,23.38" style="fill: #fff;"/>
      <path d="M23.1,248.47c-12.76,0-23.1-10.35-23.1-23.11v-112.47C0,56.29,46.04,10.25,102.64,10.25h88.68c12.76,0,23.11,10.34,23.11,23.11s-10.35,23.11-23.11,23.11h-88.68c-31.11,0-56.43,25.31-56.43,56.43v112.47c0,12.76-10.34,23.11-23.11,23.11" style="fill: #fff;"/>
      <path d="M1620.24,169.74c-22.12,0-40.11-17.99-40.11-40.11s17.99-40.11,40.11-40.11,40.11,17.99,40.11,40.11-17.99,40.11-40.11,40.11M1620.24,69.77c-33.01,0-59.86,26.86-59.86,59.87s26.85,59.8,59.86,59.8,59.81-26.82,59.81-59.8-26.83-59.87-59.81-59.87" style="fill: #fff;"/>
      <path d="M1500.52,19.7c22.12,0,40.11,17.99,40.11,40.11s-17.99,40.11-40.11,40.11-40.11-17.99-40.11-40.11,18-40.11,40.11-40.11M1500.52,119.67c33.01,0,59.86-26.85,59.86-59.86S1533.53,0,1500.52,0s-59.81,26.83-59.81,59.81,26.83,59.86,59.81,59.86" style="fill: #fff;"/>
      <path d="M1500.52,139.04c-32.98,0-59.81,26.83-59.81,59.81s26.83,59.86,59.81,59.86,59.86-26.86,59.86-59.86-26.85-59.81-59.86-59.81" style="fill: #fff;"/>
    </g>
  </g>
</svg>