<?xml version="1.0" encoding="UTF-8"?>
<svg id="Layer_2" data-name="Layer 2" xmlns="http://www.w3.org/2000/svg" xmlns:xlink="http://www.w3.org/1999/xlink" viewBox="0 0 1096.92 258.71">
  <defs>
    <clipPath id="clippath">
      <rect width="1096.92" height="258.71" style="fill: none;"/>
    </clipPath>
  </defs>
  <g id="Layer_1-2" data-name="Layer 1">
    <g style="clip-path: url(#clippath);">
      <path d="M452.61,9.6c-12.9,0-23.38,10.48-23.38,23.4v114.21c0,30.38-29.17,55.1-59.52,55.1s-58.03-24.72-58.03-55.1V33c0-12.92-10.46-23.4-23.38-23.4s-23.37,10.48-23.37,23.4v114.21c0,56.2,48.65,101.9,104.79,101.9s106.28-45.71,106.28-101.9V33c0-12.92-10.47-23.4-23.38-23.4" style="fill: #fff;"/>
      <path d="M662.26,10.13h-112.46c-12.86,0-23.3,10.4-23.3,23.22s10.43,23.19,23.3,23.19h112.46c14.3,0,25.93,11.13,25.93,24.8s-11.62,24.79-25.93,24.79l-112.46.02c-12.87.02-23.3,10.4-23.3,23.22s10.43,23.21,23.3,23.21h112.46c14.3,0,25.93,11.11,25.93,24.78s-11.62,24.79-25.93,24.79h-112.46c-12.86,0-23.3,10.4-23.3,23.22s10.43,23.21,23.3,23.21h112.46c39.98,0,72.51-31.95,72.51-71.22,0-18.49-7.21-35.33-19.01-48.01,11.8-12.67,19.01-29.53,19.01-48.01,0-39.25-32.53-71.21-72.51-71.21" style="fill: #fff;"/>
      <path d="M211.13,224.59V34.12c0-13.54-10.53-24.52-23.52-24.52s-23.51,10.98-23.51,24.52v72.56H47.03V34.12c0-13.54-10.53-24.52-23.52-24.52S0,20.58,0,34.12v190.47C0,238.14,10.53,249.11,23.51,249.11s23.52-10.98,23.52-24.52v-70.33h117.08v70.33c0,13.55,10.53,24.52,23.51,24.52s23.52-10.98,23.52-24.52" style="fill: #fff;"/>
      <path d="M1037.11,169.74c-22.12,0-40.11-17.99-40.11-40.11s17.99-40.11,40.11-40.11,40.11,17.99,40.11,40.11-17.99,40.11-40.11,40.11M1037.11,69.77c-33.01,0-59.86,26.85-59.86,59.86s26.85,59.81,59.86,59.81,59.81-26.83,59.81-59.81-26.83-59.86-59.81-59.86" style="fill: #fff;"/>
      <path d="M917.38,19.7c22.11,0,40.11,17.99,40.11,40.11s-17.99,40.11-40.11,40.11-40.11-17.99-40.11-40.11,17.99-40.11,40.11-40.11M917.38,119.67c33.01,0,59.86-26.85,59.86-59.86S950.39,0,917.38,0s-59.81,26.83-59.81,59.81,26.83,59.86,59.81,59.86" style="fill: #fff;"/>
      <path d="M917.38,238.96c-22.11,0-40.11-17.99-40.11-40.11s17.99-40.11,40.11-40.11,40.11,17.99,40.11,40.11-17.99,40.11-40.11,40.11M917.38,139.04c-32.98,0-59.81,26.83-59.81,59.81s26.83,59.86,59.81,59.86,59.86-26.85,59.86-59.86-26.85-59.81-59.86-59.81" style="fill: #fff;"/>
    </g>
  </g>
</svg>