<?xml version="1.0" encoding="UTF-8"?>
<svg id="Layer_2" data-name="Layer 2" xmlns="http://www.w3.org/2000/svg" xmlns:xlink="http://www.w3.org/1999/xlink" viewBox="0 0 1762.99 258.71">
  <defs>
    <clipPath id="clippath">
      <rect width="1762.99" height="258.71" style="fill: none;"/>
    </clipPath>
  </defs>
  <g id="Layer_1-2" data-name="Layer 1">
    <g style="clip-path: url(#clippath);">
      <path d="M670.2,32.91c0-12.93-10.49-23.42-23.44-23.42h-175.7c-12.96,0-23.45,10.49-23.45,23.42s10.49,23.42,23.45,23.42h64.4v169.47c0,12.93,10.5,23.42,23.45,23.42s23.45-10.49,23.45-23.42V56.33h64.4c12.95,0,23.44-10.49,23.44-23.42" style="fill: #fff;"/>
      <path d="M1098.84,9.49h-46.26c-56.31,0-102.1,45.75-102.1,101.99v114.32c0,12.93,10.5,23.42,23.45,23.42s23.45-10.49,23.45-23.42v-114.32c0-30.41,24.75-55.15,55.21-55.15h46.26c12.95,0,23.45-10.5,23.45-23.42s-10.5-23.43-23.45-23.43" style="fill: #fff;"/>
      <path d="M872.21,9.49c-12.91,0-23.4,10.49-23.4,23.42v114.31c0,30.41-24.72,55.15-55.1,55.15s-55.1-24.74-55.1-55.15V32.91c0-12.93-10.47-23.42-23.4-23.42s-23.39,10.49-23.39,23.42v114.31c0,56.25,45.71,101.99,101.89,101.99s101.9-45.75,101.9-101.99V32.91c0-12.93-10.48-23.42-23.4-23.42" style="fill: #fff;"/>
      <path d="M102,9.49C45.75,9.49,0,55.24,0,111.48v114.32C0,238.73,10.49,249.22,23.42,249.22s23.42-10.49,23.42-23.42v-114.32c0-30.41,24.74-55.15,55.15-55.15s55.14,24.74,55.14,55.15v114.32c0,12.93,10.49,23.42,23.43,23.42s23.41-10.49,23.41-23.42v-114.32c0-56.24-45.75-101.99-101.98-101.99" style="fill: #fff;"/>
      <path d="M370.78,23.35c-3.77-8.43-12.15-13.86-21.39-13.86s-17.6,5.43-21.36,13.86l-86.27,192.89c-5.28,11.8,0,25.66,11.82,30.93,11.81,5.29,25.67,0,30.94-11.81l64.88-145.09,64.89,145.09c3.89,8.7,12.45,13.86,21.4,13.86,3.19,0,6.45-.66,9.55-2.05,11.8-5.29,17.09-19.13,11.82-30.93L370.78,23.35Z" style="fill: #fff;"/>
      <path d="M1169.79,152.73h99.52c12.93,0,23.42-10.48,23.42-23.38s-10.49-23.38-23.42-23.38h-99.52c-12.93,0-23.42,10.48-23.42,23.38s10.49,23.38,23.42,23.38" style="fill: #fff;"/>
      <path d="M1332.93,202.46h-163.15c-12.93,0-23.42,10.48-23.42,23.38s10.49,23.38,23.42,23.38h163.15c12.93,0,23.42-10.48,23.42-23.38s-10.49-23.38-23.42-23.38" style="fill: #fff;"/>
      <path d="M1332.93,9.49h-163.15c-12.93,0-23.42,10.48-23.42,23.38s10.49,23.38,23.42,23.38h163.15c12.93,0,23.42-10.48,23.42-23.38s-10.49-23.38-23.42-23.38" style="fill: #fff;"/>
      <path d="M1703.19,69.77c-33.01,0-59.86,26.86-59.86,59.86s26.85,59.81,59.86,59.81,59.81-26.83,59.81-59.81-26.83-59.86-59.81-59.86" style="fill: #fff;"/>
      <path d="M1583.46,119.67c33.01,0,59.86-26.86,59.86-59.86S1616.47,0,1583.46,0s-59.81,26.83-59.81,59.81,26.83,59.86,59.81,59.86" style="fill: #fff;"/>
      <path d="M1583.46,139.04c-32.98,0-59.81,26.83-59.81,59.81s26.83,59.86,59.81,59.86,59.86-26.85,59.86-59.86-26.86-59.81-59.86-59.81" style="fill: #fff;"/>
    </g>
  </g>
</svg>