<?xml version="1.0" encoding="UTF-8"?>
<svg id="Layer_2" data-name="Layer 2" xmlns="http://www.w3.org/2000/svg" viewBox="0 0 1894.79 244.46">
  <g id="Layer_1-2" data-name="Layer 1">
    <g>
      <g>
        <path d="M135.75,0H23.3C10.43,0,0,10.4,0,23.22s10.43,23.19,23.3,23.19h112.46c14.3,0,25.93,11.13,25.93,24.8,0,.05,0,.1,0,.15,0,.05,0,.1,0,.15,0,13.67-11.62,24.8-25.93,24.8H23.3C10.44,96.3.02,106.66,0,119.46h0v96.83c0,12.93,10.5,23.42,23.45,23.42s23.45-10.49,23.45-23.42v-73.58h88.86c39.98,0,72.51-31.96,72.51-71.21,0-.05,0-.1,0-.15,0-.05,0-.1,0-.15C208.26,31.96,175.73,0,135.75,0Z" style="fill: #fff;"/>
        <path d="M344.23,18.59c-3.77-8.43-12.15-13.86-21.39-13.86s-17.6,5.43-21.36,13.86l-86.27,192.89c-5.28,11.8,0,25.66,11.82,30.93,11.81,5.29,25.67,0,30.94-11.81l64.88-145.09,64.89,145.09c3.89,8.7,12.45,13.86,21.4,13.86,3.19,0,6.45-.66,9.55-2.05,11.8-5.28,17.09-19.13,11.82-30.93L344.23,18.59Z" style="fill: #fff;"/>
        <path d="M611.33,5.26h-46.01c-56,0-101.55,45.55-101.55,101.54v113.81c0,12.88,10.44,23.32,23.32,23.32s23.32-10.44,23.32-23.32v-113.81c0-30.27,24.62-54.91,54.91-54.91h46.01c12.88,0,23.32-10.45,23.32-23.32s-10.43-23.32-23.32-23.32Z" style="fill: #fff;"/>
        <path d="M973.77,5.26c-12.88,0-23.32,10.44-23.32,23.32v192.04c0,12.88,10.44,23.32,23.32,23.32s23.32-10.44,23.32-23.32V28.58c0-12.88-10.43-23.32-23.32-23.32Z" style="fill: #fff;"/>
        <path d="M1172.67,5.26c-56,0-101.55,45.55-101.55,101.54v113.81c0,12.88,10.44,23.32,23.32,23.32s23.32-10.44,23.32-23.32v-113.81c0-30.27,24.63-54.91,54.91-54.91s54.9,24.64,54.9,54.91v113.81c0,12.88,10.44,23.32,23.33,23.32s23.32-10.44,23.32-23.32v-113.81c0-56-45.55-101.54-101.55-101.54Z" style="fill: #fff;"/>
        <path d="M1526.14,213v-75.42c0-12.76-10.35-23.11-23.11-23.11s-23.11,10.34-23.11,23.11v59.66h-37.37c-40.09,0-72.71-32.59-72.71-72.64s32.62-72.64,72.71-72.64h60.43c12.88,0,23.32-10.44,23.32-23.3s-10.43-23.3-23.32-23.3h-60.43c-65.81,0-119.35,53.48-119.35,119.23s53.54,119.22,119.35,119.22h60.43c12.88,0,23.32-10.43,23.32-23.29,0-1.46-.14-2.88-.4-4.27.15-1.06.23-2.15.23-3.26Z" style="fill: #fff;"/>
        <path d="M855.23,5.24c-12.87,0-23.32,10.43-23.32,23.32v17.01c0,30.29-24.64,54.91-54.91,54.91h-57.5V28.36c0-12.88-10.43-23.32-23.32-23.32s-23.32,10.44-23.32,23.32v192.04c0,12.88,10.44,23.32,23.32,23.32s23.32-10.44,23.32-23.32v-73.13h57.5c30.27,0,54.91,24.62,54.91,54.91v18.01c0,12.88,10.45,23.32,23.32,23.32s23.32-10.43,23.32-23.32v-18.01c0-31.48-14.4-59.66-36.96-78.3,22.56-18.64,36.96-46.82,36.96-78.3v-17.01c0-12.88-10.44-23.32-23.32-23.32Z" style="fill: #fff;"/>
      </g>
      <path d="M1814.2,41.68c-44.4,0-80.52,36.12-80.52,80.52s36.12,80.59,80.52,80.59,80.59-36.15,80.59-80.59-36.16-80.52-80.59-80.52ZM1859.57,106.43c0,14.45-11.98,26.22-26.7,26.22h-32.71v27.09c0,4.76-3.87,8.62-8.63,8.62s-8.63-3.86-8.63-8.62v-35.65h0c0-4.71,3.85-8.53,8.58-8.53h41.4c5.27,0,9.55-4.1,9.55-9.13,0-.02,0-.04,0-.05,0-.02,0-.04,0-.05,0-5.03-4.28-9.13-9.55-9.13h-41.4c-4.73,0-8.58-3.82-8.58-8.54s3.84-8.55,8.58-8.55h41.4c14.72,0,26.7,11.77,26.7,26.22,0,.02,0,.04,0,.05,0,.02,0,.04,0,.05Z" style="fill: #fff;"/>
    </g>
  </g>
</svg>