<?xml version="1.0" encoding="UTF-8"?>
<svg id="Layer_2" data-name="Layer 2" xmlns="http://www.w3.org/2000/svg" viewBox="0 0 1292.4 239.73">
  <g id="Layer_1-2" data-name="Layer 1">
    <g>
      <path d="M288.42.53c-12.88,0-23.32,10.44-23.32,23.32v192.04c0,12.88,10.44,23.32,23.32,23.32s23.32-10.44,23.32-23.32V23.84c0-12.88-10.43-23.32-23.32-23.32Z" style="fill: #fff;"/>
      <path d="M476.32.53c-56,0-101.55,45.55-101.55,101.54v113.81c0,12.88,10.45,23.32,23.32,23.32s23.32-10.44,23.32-23.32v-113.81c0-30.27,24.63-54.91,54.91-54.91s54.9,24.64,54.9,54.91v113.81c0,12.88,10.44,23.32,23.33,23.32s23.32-10.44,23.32-23.32v-113.81c0-56-45.55-101.54-101.55-101.54Z" style="fill: #fff;"/>
      <path d="M1269.08.53h-46.01c-56,0-101.55,45.55-101.55,101.54v113.81c0,12.88,10.44,23.32,23.32,23.32s23.32-10.44,23.32-23.32v-113.81c0-30.27,24.62-54.91,54.91-54.91h46.01c12.88,0,23.32-10.45,23.32-23.32s-10.43-23.32-23.32-23.32Z" style="fill: #fff;"/>
      <path d="M738.21,47.23h60.43c12.88,0,23.32-10.44,23.32-23.29s-10.43-23.3-23.32-23.3h-60.43c-65.81,0-119.35,53.48-119.35,119.23s53.54,119.22,119.35,119.22h60.43c12.88,0,23.32-10.43,23.32-23.29,0-1.46-.14-2.88-.4-4.27.15-1.06.23-2.15.23-3.26v-75.42c0-12.76-10.35-23.11-23.11-23.11s-23.11,10.34-23.11,23.11v59.66h-37.37c-40.09,0-72.71-32.59-72.71-72.64s32.62-72.64,72.71-72.64Z" style="fill: #fff;"/>
      <path d="M998.35,143.25c12.93,0,23.41-10.48,23.41-23.38s-10.49-23.38-23.41-23.38h-99.52c-12.93,0-23.41,10.48-23.41,23.38s10.48,23.38,23.41,23.38h99.52Z" style="fill: #fff;"/>
      <path d="M1061.99,192.97h-163.15c-12.92,0-23.42,10.48-23.42,23.38s10.49,23.38,23.42,23.38h163.15c12.93,0,23.42-10.47,23.42-23.38s-10.48-23.38-23.42-23.38Z" style="fill: #fff;"/>
      <path d="M1061.99,0h-163.15c-12.92,0-23.42,10.47-23.42,23.38s10.49,23.38,23.42,23.38h163.15c12.93,0,23.42-10.48,23.42-23.38s-10.48-23.38-23.42-23.38Z" style="fill: #fff;"/>
      <path d="M189.55,105.05h-76.2c-12.93,0-23.42,10.48-23.42,23.38s10.48,23.38,23.42,23.38h76.2c12.93,0,23.42-10.48,23.42-23.38s-10.48-23.38-23.42-23.38Z" style="fill: #fff;"/>
      <path d="M191.32.76h-88.68C46.04.76,0,46.8,0,103.4v112.47c0,12.76,10.34,23.11,23.1,23.11s23.11-10.35,23.11-23.11v-112.47c0-31.11,25.32-56.43,56.43-56.43h88.68c12.76,0,23.11-10.35,23.11-23.11S204.08.76,191.32.76Z" style="fill: #fff;"/>
    </g>
  </g>
</svg>