<?xml version="1.0" encoding="UTF-8"?>
<svg id="Layer_3" data-name="Layer 3" xmlns="http://www.w3.org/2000/svg" viewBox="0 0 65.29 69.17">
  <circle cx="13.87" cy="6.44" r="6.44" style="fill: #fff;"/>
  <circle cx="49.11" cy="6.98" r="6.44" style="fill: #fff;"/>
  <path d="M28.27,21.75c0-2.04-.9-3.8-2.28-5.09-1.47-1.37-3.47-2.03-5.47-2.03H7.81c-2.01,0-4,.66-5.47,2.03C.95,17.95.06,19.71.05,21.75L0,40.22c0,1.35,1.53,2.16,2.58,2.16,1.12,0,2.56-.78,2.57-2.16l.13-16.42c0-.3,1.27-.33,1.27.19l.1,42.28c0,1.79,2.24,2.94,3.66,2.84,1.49-.1,3.3-1.38,3.31-3.22l.03-23.44c.03-.12.23-.17.46-.19.02,0,.04,0,.06,0,.02,0,.04,0,.06,0,.23.01.42.07.46.19l.03,23.44c0,1.84,1.81,3.12,3.31,3.22,1.42.1,3.66-1.05,3.66-2.84l.1-42.28c0-.52,1.27-.49,1.27-.19l.13,16.42c.01,1.38,1.44,2.17,2.57,2.16,1.05,0,2.59-.81,2.58-2.16l-.05-18.47Z" style="fill: #fff;"/>
  <path d="M65.2,37.93l-5.64-17.57c-.36-1.13-1.02-2.06-1.85-2.81-1.25-1.12-2.93-1.64-4.61-1.64h-8.17c-1.68,0-3.36.52-4.61,1.64-.83.74-1.49,1.68-1.85,2.81l-5.64,17.57c-.43,1.35.96,2.68,1.98,2.9,1.2.27,2.54-.38,2.96-1.71l4.67-14.81c.16-.51.99-.6,1.15-.26l-6.78,23.87c-.15.52-.28.96-.08,1.31.21.37.59.57,1.14.59l4.44.14.18,16.88c.02,1.56,1.96,2.5,3.15,2.29,1.41-.25,2.65-1.27,2.66-2.94l.05-16c.09-.19.36-.28.67-.29.31.02.58.11.67.29l.05,16c0,1.67,1.25,2.69,2.66,2.94,1.19.21,3.14-.73,3.15-2.29l.18-16.88,4.44-.14c.55-.02.92-.22,1.14-.59.2-.35.07-.79-.08-1.31l-6.78-23.87c.16-.35.99-.25,1.15.26l4.67,14.81c.42,1.33,1.76,1.98,2.96,1.71,1.01-.23,2.41-1.55,1.98-2.9Z" style="fill: #fff;"/>
</svg>